<?xml version="1.0" encoding="UTF-8" standalone="no"?>
<svg width="23px" height="24px" viewBox="0 0 23 24" version="1.1" xmlns="http://www.w3.org/2000/svg" xmlns:xlink="http://www.w3.org/1999/xlink" xmlns:sketch="http://www.bohemiancoding.com/sketch/ns">
    <!-- Generator: Sketch 3.2.2 (9983) - http://www.bohemiancoding.com/sketch -->
    <title>facebook_L</title>
    <desc>Created with Sketch.</desc>
    <defs></defs>
    <g id="Pricing" stroke="none" stroke-width="1" fill="none" fill-rule="evenodd" sketch:type="MSPage">
        <g id="Mobile-Portrait" sketch:type="MSArtboardGroup" transform="translate(-111.000000, -694.000000)" fill="#2179A5">
            <g id="Table" sketch:type="MSLayerGroup" transform="translate(49.000000, 188.000000)">
                <g id="1st-Row" sketch:type="MSShapeGroup">
                    <g id="Group-1" transform="translate(2.000000, 0.000000)">
                        <g id="Social-Icons" transform="translate(60.000000, 506.000000)">
                            <path d="M11.1111111,23.0769231 C17.2476086,23.0769231 22.2222222,17.9109782 22.2222222,11.5384615 C22.2222222,5.16594488 17.2476086,0 11.1111111,0 C4.97461359,0 0,5.16594488 0,11.5384615 C0,17.9109782 4.97461359,23.0769231 11.1111111,23.0769231 Z M11.1111111,22.1538462 C16.7566888,22.1538462 21.3333333,17.4011769 21.3333333,11.5384615 C21.3333333,5.67574621 16.7566888,0.923076923 11.1111111,0.923076923 C5.46553339,0.923076923 0.888888889,5.67574621 0.888888889,11.5384615 C0.888888889,17.4011769 5.46553339,22.1538462 11.1111111,22.1538462 Z M12.448,4.09015385 C11.9813333,4.09015385 11.5333333,4.14830769 11.0106667,4.36153846 C9.94666667,4.80738462 9.40533333,5.85415385 9.40533333,7.48246154 L9.40533333,9.072 L7.912,9.072 L7.912,11.7276923 L9.40533333,11.7276923 L9.40533333,19.3846154 L12.448,19.3846154 L12.448,11.7276923 L14.52,11.7276923 L14.8,9.072 L12.448,9.072 L12.448,7.87015385 C12.448,7.50184615 12.4853333,7.23046154 12.5786667,7.07538462 C12.7093333,6.84276923 12.9706667,6.72646154 13.3813333,6.72646154 L14.7626667,6.72646154 L14.7626667,4.09015385 L12.448,4.09015385 Z" id="facebook_L"></path>
                        </g>
                    </g>
                </g>
            </g>
        </g>
    </g>
</svg>