<?xml version="1.0" encoding="UTF-8" standalone="no"?>
<svg width="23px" height="24px" viewBox="0 0 23 24" version="1.1" xmlns="http://www.w3.org/2000/svg" xmlns:xlink="http://www.w3.org/1999/xlink" xmlns:sketch="http://www.bohemiancoding.com/sketch/ns">
    <!-- Generator: Sketch 3.2.2 (9983) - http://www.bohemiancoding.com/sketch -->
    <title>instagram_L</title>
    <desc>Created with Sketch.</desc>
    <defs></defs>
    <g id="Pricing" stroke="none" stroke-width="1" fill="none" fill-rule="evenodd" sketch:type="MSPage">
        <g id="Mobile-Portrait" sketch:type="MSArtboardGroup" transform="translate(-188.000000, -694.000000)" fill="#2179A5">
            <g id="Table" sketch:type="MSLayerGroup" transform="translate(49.000000, 188.000000)">
                <g id="1st-Row" sketch:type="MSShapeGroup">
                    <g id="Group-1" transform="translate(2.000000, 0.000000)">
                        <g id="Social-Icons" transform="translate(60.000000, 506.000000)">
                            <path d="M91.8703643,9.69230769 L95.5555556,9.69230769 L95.5555556,7.61538462 C95.5555556,6.46833167 94.6179814,5.53846154 93.4722222,5.53846154 L84.3055556,5.53846154 C84.2017557,5.53846154 84.0997289,5.54596429 84,5.56046415 L84,5.56046415 L84,8.30769231 L83.5555556,8.30769231 L83.5555556,5.67613931 C82.7755455,5.97444849 82.2222222,6.72575355 82.2222222,7.61538462 L82.2222222,9.69230769 L85.9074135,9.69230769 C86.6398409,8.84250087 87.7042224,8.30769231 88.8888889,8.30769231 C90.0735554,8.30769231 91.1379369,8.84250087 91.8703643,9.69230769 L91.8703643,9.69230769 Z M92.4731024,10.6153846 L95.5555556,10.6153846 L95.5555556,15 C95.5555556,17.4166288 93.5926379,19.3846154 91.1712563,19.3846154 L86.6065215,19.3846154 C84.1896015,19.3846154 82.2222222,17.4215562 82.2222222,15 L82.2222222,10.6153846 L85.3046754,10.6153846 C85.038536,11.1715195 84.8888889,11.7983808 84.8888889,12.4615385 C84.8888889,14.7556445 86.6797498,16.6153846 88.8888889,16.6153846 C91.098028,16.6153846 92.8888889,14.7556445 92.8888889,12.4615385 C92.8888889,11.7983808 92.7392418,11.1715195 92.4731024,10.6153846 L92.4731024,10.6153846 Z M88.8888889,24 C95.0253864,24 100,18.8340551 100,12.4615385 C100,6.0890218 95.0253864,0.923076923 88.8888889,0.923076923 C82.7523914,0.923076923 77.7777778,6.0890218 77.7777778,12.4615385 C77.7777778,18.8340551 82.7523914,24 88.8888889,24 Z M88.8888889,23.0769231 C94.5344666,23.0769231 99.1111111,18.3242538 99.1111111,12.4615385 C99.1111111,6.59882313 94.5344666,1.84615385 88.8888889,1.84615385 C83.2433112,1.84615385 78.6666667,6.59882313 78.6666667,12.4615385 C78.6666667,18.3242538 83.2433112,23.0769231 88.8888889,23.0769231 Z M85.3333333,5.53846154 L85.3333333,8.30769231 L85.7777778,8.30769231 L85.7777778,5.53846154 L85.3333333,5.53846154 Z M84.4444444,5.53846154 L84.4444444,8.30769231 L84.8888889,8.30769231 L84.8888889,5.53846154 L84.4444444,5.53846154 Z M93.0070801,6.46153846 C92.4508851,6.46153846 92,6.90648475 92,7.45360037 L92,7.77716886 C92,8.32506952 92.4496998,8.76923077 93.0070801,8.76923077 L93.2151421,8.76923077 C93.7713371,8.76923077 94.2222222,8.32428448 94.2222222,7.77716886 L94.2222222,7.45360037 C94.2222222,6.90569971 93.7725224,6.46153846 93.2151421,6.46153846 L93.0070801,6.46153846 Z M88.8888889,15.6923077 C90.6071082,15.6923077 92,14.2458431 92,12.4615385 C92,10.6772338 90.6071082,9.23076923 88.8888889,9.23076923 C87.1706696,9.23076923 85.7777778,10.6772338 85.7777778,12.4615385 C85.7777778,14.2458431 87.1706696,15.6923077 88.8888889,15.6923077 Z" id="instagram_L"></path>
                        </g>
                    </g>
                </g>
            </g>
        </g>
    </g>
</svg>